 http://www.imdb.com/title/tt1731697/

source: not mine got this encode from afree tracker

Format version                           : Version 2
File size                                : 1.57 GiB
Duration                                 : 1h 36mn
Overall bit rate                         : 2 314 Kbps
Encoded date                             : UTC 2013-04-23 16:49:13
Writing application                      : mkvmerge v6.1.0 ('Old Devil') built on Mar  2 2013 14:32:37
Writing library                          : libebml v1.3.0 + libmatroska v1.4.0

Video
ID                                       : 1
Format                                   : AVC
Format/Info                              : Advanced Video Codec
Format profile                           : High@L4.1
Format settings, CABAC                   : Yes
Format settings, ReFrames                : 4 frames
Codec ID                                 : V_MPEG4/ISO/AVC
Duration                                 : 1h 36mn
Bit rate                                 : 1 864 Kbps
Width                                    : 720 pixels
Height                                   : 288 pixels
Display aspect ratio                     : 2.500
Frame rate mode                          : Constant
Frame rate                               : 25.000 fps
Color space                              : YUV
Chroma subsampling                       : 4:2:0
Bit depth                                : 8 bits
Scan type                                : Progressive
Bits/(Pixel*Frame)                       : 0.360
Stream size                              : 1.23 GiB (79%)
Writing library                          : x264 core 130 r2273 b3065e6


Audio
ID                                       : 2
Format                                   : AC-3
Format/Info                              : Audio Coding 3
Mode extension                           : CM (complete main)
Format settings, Endianness              : Big
Codec ID                                 : A_AC3
Duration                                 : 1h 36mn
Bit rate mode                            : Constant
Bit rate                                 : 448 Kbps
Channel(s)                               : 6 channels
Channel positions                        : Front: L C R, Side: L R, LFE
Sampling rate                            : 48.0 KHz
Bit depth                                : 16 bits
Compression mode                         : Lossy
Stream size                              : 311 MiB (19%)
Language                                 : English
Default                                  : Yes
Forced                                   : No
 
http://img707.imageshack.us/img707/5339/29642819.png 
http://img844.imageshack.us/img844/5545/70942884.png 
http://img14.imageshack.us/img14/2579/72390816.png 
http://img856.imageshack.us/img856/1204/19072955.png